<svg width="24" height="24" viewBox="0 0 24 24" fill="none" xmlns="http://www.w3.org/2000/svg">
<path d="M21.2586 6.46886C21.2131 6.35642 21.141 6.25669 21.0485 6.17822C20.956 6.09975 20.8458 6.04489 20.7275 6.01834C20.6091 5.99179 20.4861 5.99435 20.3689 6.02579C20.2518 6.05723 20.144 6.11662 20.0548 6.19886L16.2767 9.68543L14.6614 9.33855L14.3145 7.72324L17.8011 3.94511C17.8833 3.85595 17.9427 3.74817 17.9741 3.63101C18.0056 3.51386 18.0081 3.39083 17.9816 3.27247C17.955 3.15411 17.9002 3.04395 17.8217 2.95145C17.7432 2.85895 17.6435 2.78686 17.5311 2.74136C16.5063 2.32683 15.3954 2.17032 14.2961 2.28557C13.1967 2.40082 12.1424 2.78431 11.2259 3.40235C10.3094 4.02039 9.55871 4.85405 9.03979 5.8301C8.52086 6.80614 8.2496 7.8947 8.24982 9.00011C8.2486 9.93356 8.4401 10.8572 8.81232 11.7132L3.16763 16.5939C3.15357 16.6051 3.14044 16.6182 3.12732 16.6304C2.56464 17.1931 2.24854 17.9562 2.24854 18.752C2.24854 19.146 2.32614 19.5362 2.47692 19.9002C2.6277 20.2642 2.84871 20.5949 3.12732 20.8736C3.40592 21.1522 3.73668 21.3732 4.1007 21.5239C4.46471 21.6747 4.85487 21.7523 5.24888 21.7523C6.04462 21.7523 6.80777 21.4362 7.37044 20.8736C7.38263 20.8614 7.39575 20.8473 7.407 20.8342L12.2867 15.1876C13.3146 15.6388 14.4388 15.8266 15.5575 15.7338C16.6763 15.641 17.7542 15.2707 18.6938 14.6564C19.6333 14.0421 20.4049 13.2031 20.9385 12.2155C21.4721 11.2278 21.7509 10.1227 21.7498 9.00011C21.7513 8.13254 21.5844 7.27291 21.2586 6.46886ZM14.9998 14.2501C14.1121 14.2489 13.2391 14.0231 12.462 13.5939C12.3115 13.5107 12.1369 13.4818 11.9676 13.512C11.7983 13.5422 11.6445 13.6297 11.532 13.7598L6.29138 19.8292C6.00778 20.0986 5.63016 20.2466 5.23902 20.2416C4.84787 20.2366 4.47416 20.079 4.19756 19.8024C3.92096 19.5258 3.76335 19.1521 3.75834 18.7609C3.75334 18.3698 3.90132 17.9921 4.17075 17.7086L10.2354 12.4689C10.3658 12.3563 10.4534 12.2024 10.4836 12.0328C10.5138 11.8633 10.4848 11.6886 10.4014 11.5379C9.92328 10.6732 9.69891 9.69114 9.75406 8.7046C9.80922 7.71805 10.1417 6.7671 10.7132 5.96107C11.2847 5.15503 12.072 4.52664 12.9847 4.14813C13.8974 3.76962 14.8984 3.65635 15.8726 3.82136L12.9476 6.99105C12.8662 7.07934 12.8072 7.18588 12.7756 7.30171C12.7439 7.41753 12.7406 7.53927 12.7658 7.65668L13.2964 10.1251C13.3267 10.2663 13.3972 10.3957 13.4993 10.4978C13.6014 10.5999 13.7308 10.6704 13.872 10.7007L16.3423 11.2314C16.4597 11.2565 16.5815 11.2532 16.6973 11.2215C16.8131 11.1899 16.9197 11.1309 17.0079 11.0495L20.1776 8.12449C20.304 8.87731 20.2648 9.64862 20.0629 10.3848C19.861 11.1209 19.5011 11.8043 19.0083 12.3873C18.5156 12.9702 17.9017 13.4389 17.2094 13.7606C16.5172 14.0823 15.7632 14.2493 14.9998 14.2501Z" fill="#1E1E1E"/>
</svg>
