<svg width="24" height="24" viewBox="0 0 24 24" fill="none" xmlns="http://www.w3.org/2000/svg">
<path d="M20.25 19.5H12.75V12.6957C14.0637 12.506 15.2568 11.8259 16.0892 10.792C16.9216 9.75821 17.3316 8.44744 17.2365 7.12355C17.1415 5.79965 16.5485 4.56089 15.5769 3.65658C14.6053 2.75226 13.3273 2.24951 12 2.24951C10.6727 2.24951 9.39465 2.75226 8.42308 3.65658C7.45151 4.56089 6.85853 5.79965 6.76348 7.12355C6.66843 8.44744 7.07836 9.75821 7.91078 10.792C8.7432 11.8259 9.93631 12.506 11.25 12.6957V19.5H3.75C3.55109 19.5 3.36032 19.5791 3.21967 19.7197C3.07902 19.8604 3 20.0511 3 20.25C3 20.449 3.07902 20.6397 3.21967 20.7804C3.36032 20.921 3.55109 21 3.75 21H20.25C20.4489 21 20.6397 20.921 20.7803 20.7804C20.921 20.6397 21 20.449 21 20.25C21 20.0511 20.921 19.8604 20.7803 19.7197C20.6397 19.5791 20.4489 19.5 20.25 19.5ZM8.25 7.50004C8.25 6.75836 8.46993 6.03334 8.88199 5.41665C9.29404 4.79997 9.87971 4.31932 10.5649 4.03549C11.2502 3.75166 12.0042 3.6774 12.7316 3.82209C13.459 3.96679 14.1272 4.32394 14.6517 4.84839C15.1761 5.37284 15.5333 6.04102 15.6779 6.76845C15.8226 7.49588 15.7484 8.24988 15.4645 8.9351C15.1807 9.62032 14.7001 10.206 14.0834 10.618C13.4667 11.0301 12.7417 11.25 12 11.25C11.0054 11.25 10.0516 10.855 9.34835 10.1517C8.64509 9.44843 8.25 8.4946 8.25 7.50004Z" fill="#1E1E1E"/>
</svg>
