<svg width="640" height="112" viewBox="0 0 640 112" fill="none" xmlns="http://www.w3.org/2000/svg">
<path d="M98.8884 81.988H92.1763V34.1547C92.1763 32.3423 91.4569 30.6043 90.1766 29.3228C88.8962 28.0413 87.1597 27.3213 85.3489 27.3213H66.5738C66.1211 27.3213 65.687 27.5013 65.3669 27.8217C65.0468 28.1421 64.867 28.5766 64.867 29.0297V81.988H58.0397V6.99642C58.051 5.93205 57.8202 4.87905 57.3648 3.91714C56.9094 2.95523 56.2413 2.10963 55.4112 1.44434C54.2795 0.561286 52.8987 0.057539 51.4648 0.004639C50.0308 -0.048261 48.6167 0.352375 47.4232 1.14965L13.2866 23.9047C12.3502 24.53 11.5827 25.3774 11.0527 26.3714C10.5226 27.3654 10.2463 28.4752 10.2485 29.6019V81.988H3.53637C2.65422 81.975 1.79986 82.2968 1.14516 82.8887C0.490456 83.4805 0.0839805 84.2986 0.00750042 85.1783C-0.0235038 85.6457 0.0418311 86.1144 0.199447 86.5554C0.357062 86.9965 0.603591 87.4003 0.923723 87.742C1.24385 88.0836 1.63075 88.3557 2.06038 88.5414C2.49 88.7271 2.95319 88.8224 3.42116 88.8213H99.0036C99.4715 88.8224 99.9347 88.7271 100.364 88.5414C100.794 88.3557 101.181 88.0836 101.501 87.742C101.821 87.4003 102.068 86.9965 102.225 86.5554C102.383 86.1144 102.448 85.6457 102.417 85.1783C102.341 84.2986 101.934 83.4805 101.28 82.8887C100.625 82.2968 99.7705 81.975 98.8884 81.988ZM29.0236 71.738C29.0246 72.2064 28.9294 72.67 28.7439 73.1C28.5584 73.53 28.2865 73.9172 27.9452 74.2376C27.6038 74.5581 27.2003 74.8048 26.7597 74.9626C26.319 75.1203 25.8507 75.1857 25.3838 75.1547C24.5041 75.0781 23.6861 74.6706 23.0947 74.0144C22.5032 73.3582 22.1822 72.5021 22.1963 71.6184V65.02C22.1843 64.1373 22.5061 63.2828 23.0973 62.6277C23.6885 61.9726 24.5052 61.5655 25.3838 61.488C25.8507 61.457 26.319 61.5224 26.7597 61.6801C27.2003 61.8379 27.6038 62.0846 27.9452 62.405C28.2865 62.7254 28.5584 63.1127 28.7439 63.5427C28.9294 63.9727 29.0246 64.4363 29.0236 64.9047V71.738ZM29.0236 47.8213C29.0246 48.2897 28.9294 48.7533 28.7439 49.1833C28.5584 49.6133 28.2865 50.0006 27.9452 50.321C27.6038 50.6414 27.2003 50.8881 26.7597 51.0459C26.319 51.2036 25.8507 51.269 25.3838 51.238C24.5045 51.1604 23.6871 50.7527 23.0958 50.0967C22.5045 49.4407 22.1832 48.5851 22.1963 47.7017V41.1033C22.1843 40.2207 22.5061 39.3661 23.0973 38.711C23.6885 38.056 24.5052 37.6488 25.3838 37.5713C25.8507 37.5403 26.319 37.6057 26.7597 37.7634C27.2003 37.9212 27.6038 38.1679 27.9452 38.4884C28.2865 38.8088 28.5584 39.196 28.7439 39.626C28.9294 40.056 29.0246 40.5196 29.0236 40.988V47.8213ZM46.0919 71.738C46.0929 72.2064 45.9977 72.67 45.8122 73.1C45.6267 73.53 45.3548 73.9172 45.0135 74.2376C44.6721 74.5581 44.2686 74.8048 43.828 74.9626C43.3873 75.1203 42.919 75.1857 42.4521 75.1547C41.5739 75.0782 40.7571 74.6719 40.1659 74.0176C39.5746 73.3632 39.2526 72.5092 39.2646 71.627V65.02C39.2536 64.1381 39.576 63.2846 40.167 62.6304C40.7581 61.9763 41.5743 61.5697 42.4521 61.4923C42.919 61.4612 43.3873 61.5266 43.828 61.6844C44.2686 61.8421 44.6721 62.0889 45.0135 62.4093C45.3548 62.7297 45.6267 63.1169 45.8122 63.547C45.9977 63.977 46.0929 64.4406 46.0919 64.9089V71.738ZM46.0919 47.8213C46.0929 48.2897 45.9977 48.7533 45.8122 49.1833C45.6267 49.6133 45.3548 50.0006 45.0135 50.321C44.6721 50.6414 44.2686 50.8881 43.828 51.0459C43.3873 51.2036 42.919 51.269 42.4521 51.238C41.5743 51.1605 40.7581 50.754 40.167 50.0999C39.576 49.4457 39.2536 48.5922 39.2646 47.7103V41.1033C39.2536 40.2214 39.576 39.3679 40.167 38.7137C40.7581 38.0596 41.5743 37.6531 42.4521 37.5756C42.919 37.5446 43.3873 37.61 43.828 37.7677C44.2686 37.9255 44.6721 38.1722 45.0135 38.4926C45.3548 38.813 45.6267 39.2003 45.8122 39.6303C45.9977 40.0603 46.0929 40.5239 46.0919 40.9923V47.8213Z" fill="white"/>
<path d="M167.768 90.1333C163.544 90.1333 159.794 89.696 156.517 88.8213C153.24 87.8738 150.4 86.5982 147.996 84.9947C145.593 83.3182 143.627 81.496 142.098 79.528C140.568 77.4871 139.439 75.3369 138.711 73.0773L147.559 70.016C148.652 73.2231 150.837 76.0293 154.114 78.4347C157.464 80.7671 161.542 81.9333 166.348 81.9333C172.247 81.9333 176.871 80.7671 180.221 78.4347C183.571 76.1022 185.246 73.0044 185.246 69.1413C185.246 65.5698 183.753 62.6907 180.767 60.504C177.782 58.2444 173.849 56.4951 168.97 55.256L160.559 53.0693C157.136 52.1947 153.968 50.9191 151.055 49.2427C148.215 47.4933 145.921 45.3067 144.173 42.6827C142.498 39.9858 141.661 36.7787 141.661 33.0613C141.661 26.1369 143.882 20.7431 148.324 16.88C152.839 12.944 159.321 10.976 167.768 10.976C172.793 10.976 177.126 11.8142 180.767 13.4906C184.409 15.0942 187.358 17.1715 189.616 19.7226C191.946 22.2009 193.585 24.8978 194.531 27.8133L185.792 30.8747C184.409 27.2302 182.078 24.3875 178.801 22.3466C175.524 20.2329 171.555 19.176 166.894 19.176C162.015 19.176 158.119 20.3786 155.206 22.784C152.366 25.1164 150.946 28.3235 150.946 32.4053C150.946 35.904 152.075 38.6009 154.332 40.496C156.59 42.3182 159.539 43.6667 163.18 44.5413L171.592 46.6187C179.02 48.368 184.7 51.2835 188.633 55.3653C192.638 59.3742 194.641 63.7111 194.641 68.376C194.641 72.3849 193.621 76.0658 191.582 79.4187C189.543 82.6987 186.521 85.3227 182.515 87.2907C178.583 89.1858 173.667 90.1333 167.768 90.1333Z" fill="white"/>
<path d="M228.423 90.1333C223.107 90.1333 218.992 88.7484 216.079 85.9787C213.166 83.2089 211.71 79.3093 211.71 74.28V17.0986H220.449V73.4053C220.449 76.1751 221.177 78.3253 222.633 79.856C224.163 81.3138 226.275 82.0427 228.969 82.0427C229.843 82.0427 230.681 81.9333 231.482 81.7147C232.356 81.4231 233.484 80.7671 234.868 79.7467L238.254 86.8533C236.361 88.0924 234.65 88.9307 233.12 89.368C231.591 89.8782 230.025 90.1333 228.423 90.1333ZM202.206 41.9173V34.1547H236.834V41.9173H202.206Z" fill="white"/>
<path d="M282.495 88.8213L282.058 79.856V59.9573C282.058 55.6569 281.585 52.1218 280.638 49.352C279.692 46.5093 278.199 44.3591 276.16 42.9013C274.12 41.4435 271.462 40.7147 268.185 40.7147C265.199 40.7147 262.614 41.3342 260.429 42.5733C258.318 43.7395 256.57 45.6347 255.186 48.2587L247.321 45.1973C248.705 42.6462 250.38 40.4595 252.346 38.6373C254.312 36.7422 256.606 35.3209 259.228 34.3733C261.85 33.3529 264.835 32.8427 268.185 32.8427C273.283 32.8427 277.47 33.8631 280.748 35.904C284.097 37.872 286.61 40.824 288.285 44.76C289.96 48.6231 290.761 53.4338 290.688 59.192L290.579 88.8213H282.495ZM266.11 90.1333C259.701 90.1333 254.676 88.6756 251.035 85.76C247.467 82.7716 245.682 78.6533 245.682 73.4053C245.682 67.8658 247.503 63.6382 251.144 60.7227C254.858 57.7342 260.029 56.24 266.656 56.24H282.277V63.5653H268.622C263.524 63.5653 259.883 64.4035 257.699 66.08C255.587 67.7564 254.531 70.1618 254.531 73.296C254.531 76.1387 255.587 78.3982 257.699 80.0747C259.81 81.6782 262.76 82.48 266.547 82.48C269.678 82.48 272.409 81.824 274.739 80.512C277.07 79.1271 278.854 77.1956 280.092 74.7173C281.403 72.1662 282.058 69.1778 282.058 65.752H285.772C285.772 73.1867 284.097 79.1271 280.748 83.5733C277.398 87.9467 272.518 90.1333 266.11 90.1333Z" fill="white"/>
<path d="M308.598 112C307.214 112 305.612 111.708 303.791 111.125C301.971 110.615 300.041 109.923 298.002 109.048L301.279 101.723C302.954 102.452 304.41 102.998 305.648 103.363C306.959 103.727 307.979 103.909 308.707 103.909C310.673 103.909 312.276 103.363 313.514 102.269C314.824 101.249 315.917 99.7547 316.791 97.7867L323.017 82.9173L343.226 34.1547H352.62L326.404 96.4747C325.02 99.6818 323.563 102.452 322.034 104.784C320.578 107.116 318.793 108.902 316.681 110.141C314.569 111.38 311.875 112 308.598 112ZM320.614 88.8213L297.019 34.1547H306.304L326.622 82.808L329.244 88.8213H320.614Z" fill="white"/>
<path d="M380.297 90.1333C376.292 90.1333 372.797 89.5502 369.811 88.384C366.825 87.1449 364.312 85.5413 362.273 83.5733C360.307 81.6053 358.887 79.4551 358.013 77.1227L365.66 73.952C366.898 76.4302 368.755 78.4347 371.231 79.9653C373.707 81.496 376.438 82.2613 379.424 82.2613C382.846 82.2613 385.723 81.6053 388.053 80.2933C390.384 78.9084 391.549 76.9769 391.549 74.4987C391.549 72.2391 390.675 70.4169 388.927 69.032C387.252 67.6471 384.74 66.5173 381.39 65.6427L376.146 64.2213C371.194 62.9093 367.335 60.9413 364.567 58.3173C361.8 55.6204 360.416 52.5955 360.416 49.2427C360.416 44.0675 362.091 40.0587 365.441 37.216C368.864 34.3004 373.925 32.8427 380.625 32.8427C383.829 32.8427 386.742 33.3164 389.364 34.264C391.986 35.2115 394.243 36.56 396.137 38.3093C398.03 39.9858 399.414 41.9902 400.288 44.3227L392.641 47.712C391.695 45.2338 390.129 43.448 387.944 42.3547C385.759 41.2613 383.101 40.7147 379.97 40.7147C376.62 40.7147 373.998 41.4435 372.105 42.9013C370.211 44.2862 369.265 46.2542 369.265 48.8053C369.265 50.2631 370.029 51.648 371.559 52.96C373.161 54.1991 375.491 55.2195 378.55 56.0213L384.012 57.4427C387.58 58.3173 390.566 59.6293 392.969 61.3787C395.372 63.0551 397.193 64.9867 398.431 67.1733C399.669 69.36 400.288 71.6924 400.288 74.1707C400.288 77.4507 399.414 80.2933 397.666 82.6987C395.918 85.104 393.552 86.9627 390.566 88.2747C387.58 89.5138 384.157 90.1333 380.297 90.1333Z" fill="white"/>
<path d="M436.426 90.1333C431.037 90.1333 426.267 88.9307 422.116 86.5253C417.965 84.0471 414.724 80.6578 412.394 76.3573C410.063 72.0569 408.898 67.1004 408.898 61.488C408.898 55.8755 410.027 50.9191 412.284 46.6187C414.615 42.3182 417.855 38.9653 422.006 36.56C426.157 34.0818 430.891 32.8427 436.207 32.8427C441.451 32.8427 446.148 34.0453 450.299 36.4507C454.45 38.856 457.618 42.2453 459.802 46.6187L451.828 50.2267C450.372 47.3111 448.26 45.0515 445.492 43.448C442.725 41.7715 439.557 40.9333 435.989 40.9333C432.42 40.9333 429.252 41.808 426.485 43.5573C423.791 45.3067 421.642 47.7484 420.04 50.8827C418.511 53.944 417.746 57.4791 417.746 61.488C417.746 65.4969 418.511 69.0684 420.04 72.2027C421.642 75.264 423.827 77.6693 426.594 79.4187C429.435 81.168 432.639 82.0427 436.207 82.0427C439.776 82.0427 442.943 81.1316 445.711 79.3093C448.551 77.4871 450.699 74.936 452.156 71.656L460.13 75.264C457.945 79.9289 454.777 83.5733 450.626 86.1973C446.475 88.8213 441.742 90.1333 436.426 90.1333Z" fill="white"/>
<path d="M504.81 88.8213L504.373 79.856V59.9573C504.373 55.6569 503.899 52.1218 502.953 49.352C502.006 46.5093 500.513 44.3591 498.474 42.9013C496.435 41.4435 493.777 40.7147 490.5 40.7147C487.514 40.7147 484.929 41.3342 482.744 42.5733C480.632 43.7395 478.884 45.6347 477.5 48.2587L469.635 45.1973C471.019 42.6462 472.694 40.4595 474.66 38.6373C476.627 36.7422 478.921 35.3209 481.542 34.3733C484.164 33.3529 487.15 32.8427 490.5 32.8427C495.597 32.8427 499.785 33.8631 503.062 35.904C506.412 37.872 508.924 40.824 510.599 44.76C512.274 48.6231 513.075 53.4338 513.003 59.192L512.893 88.8213H504.81ZM488.424 90.1333C482.016 90.1333 476.991 88.6756 473.35 85.76C469.781 82.7716 467.997 78.6533 467.997 73.4053C467.997 67.8658 469.818 63.6382 473.459 60.7227C477.173 57.7342 482.343 56.24 488.97 56.24H504.591V63.5653H490.937C485.839 63.5653 482.198 64.4035 480.013 66.08C477.901 67.7564 476.845 70.1618 476.845 73.296C476.845 76.1387 477.901 78.3982 480.013 80.0747C482.125 81.6782 485.074 82.48 488.861 82.48C491.993 82.48 494.724 81.824 497.054 80.512C499.384 79.1271 501.169 77.1956 502.407 74.7173C503.717 72.1662 504.373 69.1778 504.373 65.752H508.087C508.087 73.1867 506.412 79.1271 503.062 83.5733C499.712 87.9467 494.833 90.1333 488.424 90.1333Z" fill="white"/>
<path d="M527.396 110.688V34.1547H535.589L536.135 44.2133V110.688H527.396ZM554.596 90.1333C550.008 90.1333 545.967 88.9307 542.471 86.5253C539.048 84.12 536.39 80.7671 534.497 76.4667C532.603 72.0933 531.656 67.1004 531.656 61.488C531.656 55.8027 532.603 50.8098 534.497 46.5093C536.39 42.2089 539.048 38.856 542.471 36.4507C545.967 34.0453 550.008 32.8427 554.596 32.8427C559.476 32.8427 563.772 34.0453 567.486 36.4507C571.2 38.856 574.077 42.2089 576.116 46.5093C578.228 50.8098 579.284 55.8027 579.284 61.488C579.284 67.1004 578.228 72.0933 576.116 76.4667C574.077 80.7671 571.2 84.12 567.486 86.5253C563.772 88.9307 559.476 90.1333 554.596 90.1333ZM552.63 82.152C556.053 82.152 559.075 81.2773 561.697 79.528C564.391 77.7787 566.503 75.3369 568.032 72.2027C569.635 69.0684 570.436 65.4969 570.436 61.488C570.436 57.4791 569.671 53.9075 568.142 50.7733C566.685 47.6391 564.61 45.1973 561.915 43.448C559.221 41.6987 556.162 40.824 552.739 40.824C549.535 40.824 546.658 41.6987 544.11 43.448C541.633 45.1973 539.667 47.6391 538.211 50.7733C536.827 53.9075 536.135 57.4791 536.135 61.488C536.135 65.4969 536.827 69.0684 538.211 72.2027C539.667 75.3369 541.633 77.7787 544.11 79.528C546.586 81.2773 549.426 82.152 552.63 82.152Z" fill="white"/>
<path d="M615.312 90.1333C609.996 90.1333 605.299 88.9307 601.221 86.5253C597.143 84.0471 593.938 80.6578 591.608 76.3573C589.35 72.0569 588.222 67.1004 588.222 61.488C588.222 55.8755 589.35 50.9191 591.608 46.6187C593.938 42.3182 597.106 38.9653 601.112 36.56C605.19 34.0818 609.851 32.8427 615.094 32.8427C620.192 32.8427 624.598 34.1182 628.312 36.6693C632.026 39.1475 634.902 42.6462 636.941 47.1653C638.98 51.6844 640 57.0053 640 63.128H594.885L597.07 61.2693C597.07 65.6427 597.835 69.3964 599.364 72.5307C600.966 75.6649 603.187 78.0702 606.027 79.7467C608.867 81.3502 612.108 82.152 615.749 82.152C619.609 82.152 622.85 81.2409 625.471 79.4187C628.166 77.5964 630.242 75.1911 631.698 72.2027L639.235 76.0293C637.852 78.872 635.995 81.3502 633.664 83.464C631.407 85.5778 628.712 87.2178 625.581 88.384C622.522 89.5502 619.099 90.1333 615.312 90.1333ZM597.616 57.552L595.322 55.8027H633.009L630.715 57.6613C630.715 54.1627 630.023 51.1378 628.639 48.5867C627.256 46.0355 625.399 44.0675 623.068 42.6827C620.738 41.2978 618.043 40.6053 614.985 40.6053C611.999 40.6053 609.159 41.2978 606.464 42.6827C603.843 44.0675 601.694 46.0355 600.019 48.5867C598.417 51.0649 597.616 54.0533 597.616 57.552Z" fill="white"/>
</svg>
